<?xml version="1.0" encoding="utf-8"?>
<!-- Generator: Adobe Illustrator 23.0.1, SVG Export Plug-In . SVG Version: 6.00 Build 0)  -->
<svg version="1.1" id="Calque_1" xmlns="http://www.w3.org/2000/svg" xmlns:xlink="http://www.w3.org/1999/xlink" x="0px" y="0px"
	 viewBox="0 0 217 144" style="enable-background:new 0 0 217 144;" xml:space="preserve">
<style type="text/css">
	.st0{fill:none;stroke:#0D2182;stroke-width:3;stroke-linecap:round;stroke-linejoin:round;stroke-miterlimit:10;}
	.st1{fill:none;stroke:#6FCEB7;stroke-width:3;stroke-linecap:round;stroke-linejoin:round;stroke-miterlimit:10;}
</style>
<path class="st0" d="M182.48,95.93c1.57,1.38,3.45,3.45,6,7"/>
<line class="st0" x1="149.97" y1="122.56" x2="154.99" y2="130.29"/>
<line class="st0" x1="62.01" y1="121.57" x2="56.96" y2="129.28"/>
<line class="st0" x1="31.97" y1="98.41" x2="25" y2="104.44"/>
<path class="st0" d="M32,44c-1.57-1.38-3.45-3.45-6-7"/>
<path class="st0" d="M17.61,69.66c-2.08,0.22-4.87,0.21-9.21-0.33"/>
<line class="st0" x1="67.51" y1="23.37" x2="62.49" y2="15.63"/>
<line class="st0" x1="110.43" y1="15.07" x2="111.57" y2="5.93"/>
<line class="st0" x1="107" y1="135" x2="106.57" y2="125.93"/>
<line class="st0" x1="152.48" y1="22.36" x2="157.52" y2="14.64"/>
<line class="st0" x1="199.39" y1="66.57" x2="208.61" y2="66.43"/>
<line class="st0" x1="182.52" y1="40.52" x2="189.48" y2="34.48"/>
<path class="st1" d="M182,69c0,0-24-26.95-78-26.95C56,42.05,35,73,35,73s9,31,71,31S182,69,182,69z"/>
</svg>
